<!DOCTYPE svg PUBLIC "-//W3C//DTD SVG 20010904//EN" "http://www.w3.org/TR/2001/REC-SVG-20010904/DTD/svg10.dtd">
<svg version="1.0" xmlns="http://www.w3.org/2000/svg" width="1673px" height="199px" viewBox="0 0 16730 1990" preserveAspectRatio="xMidYMid meet">
<g id="TTM Technologies" fill="#005291" stroke="none">
 <path d="M9455 1978 c-16 -6 -48 -17 -71 -25 -22 -8 -53 -25 -69 -37 l-29 -23 39 -102 c21 -56 42 -104 47 -107 4 -3 23 7 41 22 50 43 106 64 170 64 97 0 158 -41 173 -119 l6 -31 -42 15 c-60 21 -165 19 -215 -4 -92 -44 -140 -117 -147 -228 -1 -18 -5 -33 -8 -33 -3 0 -17 27 -32 59 -86 184 -323 273 -543 204 -136 -43 -205 -147 -205 -308 0 -193 110 -380 255 -434 125 -47 274 -46 381 3 64 29 99 66 132 136 21 45 26 70 26 141 l1 87 25 -72 c56 -158 152 -247 315 -292 72 -19 510 -33 526 -17 7 7 1 48 -19 124 -40 156 -46 182 -134 589 -51 239 -115 321 -297 380 -64 21 -275 26 -326 8z m-480 -544 c59 -60 110 -309 73 -356 -49 -60 -119 12 -153 154 -17 73 -19 171 -5 199 13 24 62 26 85 3z m812 -2 c18 -13 29 -50 58 -178 19 -88 35 -163 35 -167 0 -12 -49 -8 -83 7 -71 30 -119 121 -121 229 -1 66 0 70 32 98 37 33 49 35 79 11z"/>
 <path d="M7659 1650 c-205 -35 -303 -201 -255 -430 50 -235 203 -363 436 -363 160 0 260 50 315 158 29 56 30 64 29 184 0 107 -4 135 -24 186 -59 153 -171 241 -335 265 -79 11 -101 11 -166 0z m140 -219 c31 -31 50 -74 67 -153 19 -93 22 -181 6 -201 -35 -42 -96 -11 -126 64 -39 96 -57 249 -36 290 14 25 64 25 89 0z"/>
 <path d="M11540 1654 c-120 -13 -233 -50 -245 -82 -3 -8 7 -57 21 -108 29 -101 43 -114 80 -73 45 50 153 81 207 60 61 -24 42 -61 -57 -112 -84 -44 -111 -64 -135 -102 -63 -102 -19 -255 96 -327 104 -66 305 -70 451 -8 49 20 49 18 12 142 -26 92 -33 97 -72 59 -18 -18 -46 -37 -63 -43 -41 -16 -115 -14 -133 4 -21 21 -4 40 67 76 125 63 171 115 185 210 10 72 -16 142 -77 205 -44 45 -63 56 -122 73 -74 22 -157 32 -215 26z"/>
 <path d="M4630 1636 c-68 -19 -114 -44 -155 -84 -65 -65 -95 -149 -95 -267 0 -177 84 -317 231 -385 60 -28 87 -34 165 -38 111 -6 172 7 236 50 68 47 109 120 116 208 2 39 8 70 12 70 4 0 12 -19 19 -42 26 -89 114 -194 198 -236 80 -41 150 -55 257 -50 76 4 114 11 155 28 61 27 60 22 21 169 -18 65 -26 81 -41 81 -10 0 -19 -4 -19 -9 0 -20 -68 -51 -112 -51 -86 0 -154 76 -165 184 -7 65 22 136 63 154 41 19 107 14 156 -12 68 -36 75 -25 50 75 -11 46 -23 96 -26 111 -8 38 -80 58 -202 58 -128 0 -190 -23 -265 -99 -59 -60 -81 -108 -94 -204 -6 -42 -8 -46 -21 -32 -13 12 -51 15 -223 15 -114 0 -210 3 -214 6 -3 4 0 19 8 34 31 59 162 78 278 39 34 -11 70 -28 80 -37 13 -12 20 -13 29 -4 9 9 6 35 -11 109 -13 54 -28 106 -32 115 -5 10 -39 26 -75 38 -77 23 -249 27 -324 6z m230 -501 c18 -22 -5 -70 -40 -85 -22 -9 -34 -9 -56 2 -26 12 -74 70 -74 89 0 5 35 9 79 9 58 0 82 -4 91 -15z"/>
 <path d="M10800 1628 c-139 -49 -208 -146 -218 -306 -10 -182 53 -316 188 -402 64 -40 141 -60 235 -60 118 0 177 20 239 83 71 71 90 132 84 268 -3 74 -8 103 -18 109 -8 6 -108 10 -222 10 -133 0 -209 4 -213 10 -11 18 24 61 63 77 61 25 184 15 260 -23 86 -42 91 -36 63 78 -12 51 -26 103 -31 114 -14 37 -90 56 -235 61 -116 3 -137 1 -195 -19z m260 -511 c0 -49 -21 -71 -65 -71 -30 0 -44 7 -71 37 -54 59 -48 67 51 67 l85 0 0 -33z"/>
 <path d="M1036 1632 c-3 -5 6 -49 18 -98 66 -251 155 -651 148 -659 -3 -3 -54 -5 -114 -5 -101 0 -108 -1 -108 -20 0 -26 48 -190 59 -204 7 -8 229 -11 748 -10 698 1 738 2 741 18 4 18 -6 67 -34 163 l-14 52 -107 3 -107 3 -33 145 c-18 80 -54 246 -80 370 -25 124 -50 231 -56 238 -14 18 -316 17 -323 -1 -2 -7 13 -84 35 -172 54 -216 131 -552 131 -570 0 -13 -31 -15 -204 -15 l-204 0 -15 68 c-9 37 -30 130 -47 207 -17 77 -35 158 -40 180 -6 22 -21 98 -35 168 -13 71 -27 132 -30 138 -7 11 -322 12 -329 1z"/>
 <path d="M2311 1632 c-9 -6 -11 -17 -7 -28 16 -41 136 -487 201 -749 25 -99 50 -190 55 -202 9 -23 12 -23 209 -23 114 0 202 4 206 9 3 6 12 128 20 272 9 145 17 264 18 265 1 2 36 -70 77 -159 41 -89 98 -213 127 -274 l52 -113 200 0 c118 0 202 4 206 10 3 5 -12 125 -35 267 -22 142 -47 303 -55 358 -35 240 -55 358 -61 364 -3 3 -72 6 -152 6 l-147 0 1 -25 c0 -14 24 -148 53 -298 29 -151 51 -278 49 -284 -4 -12 -7 -8 -169 336 -60 126 -115 239 -123 251 -13 20 -23 22 -134 24 -66 1 -123 -2 -126 -7 -3 -5 -10 -110 -16 -233 -15 -313 -21 -389 -29 -389 -3 0 -40 138 -81 306 -41 168 -78 307 -82 310 -16 10 -243 15 -257 6z"/>
 <path d="M3896 1632 c-2 -4 19 -107 48 -227 29 -121 67 -283 85 -360 18 -77 35 -148 37 -157 5 -16 -5 -18 -110 -18 -134 0 -126 9 -95 -113 34 -136 -11 -123 413 -121 239 1 371 5 378 12 7 7 4 31 -10 79 -11 37 -24 84 -29 103 l-9 35 -106 3 -106 3 -27 107 c-14 59 -51 226 -81 372 -30 146 -56 271 -59 278 -3 9 -45 12 -164 12 -88 0 -162 -4 -165 -8z"/>
 <path d="M5716 1631 c-3 -4 15 -98 40 -207 25 -109 49 -219 54 -244 5 -25 22 -103 38 -175 30 -133 56 -273 69 -380 l8 -60 60 -12 c129 -26 260 -42 269 -33 8 8 -36 226 -70 344 -8 27 -12 51 -10 53 2 2 19 -5 37 -16 19 -11 61 -27 94 -36 74 -19 150 -7 196 33 39 32 69 101 69 155 0 46 -101 554 -113 575 -6 9 -49 12 -158 12 -136 0 -149 -2 -149 -18 0 -10 18 -101 40 -202 50 -227 59 -310 37 -329 -18 -14 -70 -7 -85 12 -9 12 -46 183 -87 398 -12 64 -25 121 -29 127 -9 14 -302 17 -310 3z"/>
 <path d="M6534 1625 c-3 -8 -3 -18 0 -23 3 -5 12 -40 20 -78 8 -38 24 -112 36 -164 35 -158 60 -291 70 -369 11 -83 21 -101 59 -101 14 0 80 -9 145 -20 129 -22 142 -19 131 28 -7 27 -7 27 46 -2 175 -96 349 -15 349 162 0 27 -15 118 -34 203 -18 85 -42 199 -51 254 -10 55 -23 106 -28 113 -7 9 -51 12 -158 12 -137 0 -149 -1 -149 -18 0 -10 20 -112 45 -226 25 -115 45 -226 45 -247 0 -49 -25 -66 -74 -49 l-33 10 -36 178 c-20 97 -42 211 -48 252 -7 41 -16 81 -22 88 -15 19 -306 17 -313 -3z"/>
 <path d="M8144 1625 c-3 -8 21 -126 55 -262 76 -313 125 -537 147 -678 9 -60 20 -114 24 -118 9 -11 309 -59 321 -51 14 8 12 24 -37 227 -57 235 -61 250 -118 517 -63 296 -77 353 -89 368 -15 19 -296 17 -303 -3z"/>
 <path d="M10137 1627 c-2 -6 4 -44 14 -82 38 -141 81 -334 109 -483 15 -84 30 -155 32 -157 3 -4 301 -55 318 -55 15 0 19 29 9 62 -29 101 -96 406 -130 598 -11 63 -25 118 -32 122 -7 4 -80 8 -163 8 -113 0 -153 -3 -157 -13z"/>
 <path d="M180 947 c-74 -58 -114 -106 -150 -178 -26 -51 -30 -70 -29 -127 2 -57 7 -75 34 -117 102 -160 331 -278 731 -379 241 -61 486 -97 934 -135 184 -16 891 -8 1120 12 425 38 706 76 1100 148 171 32 550 116 558 124 12 12 -9 12 -102 -1 -242 -34 -704 -77 -1051 -98 -775 -48 -1400 -39 -1910 25 -717 90 -1160 258 -1251 474 -29 71 -15 143 47 238 20 31 34 57 31 57 -4 0 -32 -19 -62 -43z"/>
 <path d="M10324 816 c-6 -17 35 -225 48 -242 4 -6 34 -14 66 -18 31 -3 96 -11 145 -18 58 -8 90 -9 97 -2 11 11 -33 231 -49 247 -7 7 -245 47 -283 47 -10 0 -21 -6 -24 -14z"/> 
 <!-- <path d="M 1287.00,14.43 C 1263.04,18.35 1240.22,29.90 1228.31,52.00 1224.01,59.97 1220.11,71.92 1220.00,81.00 1220.00,81.00 1220.00,94.00 1220.00,94.00 1220.13,121.52 1238.04,144.44 1262.00,156.24 1271.32,160.83 1281.56,163.87 1292.00,164.00 1308.01,164.18 1320.05,162.02 1334.00,153.60 1339.29,150.41 1345.93,146.13 1345.30,139.00 1344.65,131.54 1335.33,117.50 1327.00,118.25 1320.82,118.81 1315.54,125.01 1307.00,127.56 1287.88,133.28 1265.20,123.90 1257.47,105.00 1245.39,75.42 1269.55,44.97 1301.00,48.89 1317.33,50.93 1322.94,64.97 1334.00,57.35 1339.95,53.25 1348.01,42.66 1344.99,35.00 1343.14,30.32 1339.10,27.70 1335.00,25.20 1320.36,16.29 1304.09,12.32 1287.00,14.43 Z M 1422.00,15.47 C 1418.52,16.29 1415.92,16.98 1413.10,19.39 1408.67,23.18 1401.66,39.05 1398.98,45.00 1398.98,45.00 1385.26,73.00 1385.26,73.00 1385.26,73.00 1362.75,120.00 1362.75,120.00 1362.75,120.00 1356.12,134.00 1356.12,134.00 1352.88,140.97 1347.70,148.78 1354.34,155.67 1359.26,160.77 1372.22,166.68 1378.96,162.26 1383.64,159.19 1389.20,146.43 1391.58,141.00 1392.86,138.06 1394.33,133.72 1397.21,132.02 1399.14,130.89 1401.83,131.02 1404.00,131.00 1404.00,131.00 1444.00,131.00 1444.00,131.00 1446.37,131.00 1449.72,130.80 1451.79,132.02 1454.67,133.73 1455.96,138.07 1457.31,141.00 1459.89,146.62 1465.78,160.28 1471.02,162.98 1473.44,164.23 1477.35,164.14 1480.00,163.67 1488.36,162.21 1499.23,155.69 1497.67,146.00 1496.70,140.01 1485.52,118.75 1482.26,112.00 1482.26,112.00 1460.74,67.00 1460.74,67.00 1460.74,67.00 1449.58,44.00 1449.58,44.00 1449.58,44.00 1443.25,31.00 1443.25,31.00 1438.33,21.17 1434.60,13.98 1422.00,15.47 Z M 1545.00,78.00 C 1551.18,82.83 1564.88,103.35 1570.63,111.00 1575.29,117.20 1579.56,123.29 1588.00,123.90 1597.59,124.60 1602.38,119.01 1607.77,112.00 1614.43,103.32 1626.37,83.73 1634.00,78.00 1634.00,78.00 1634.00,142.00 1634.00,142.00 1634.01,146.67 1634.03,154.17 1637.31,157.82 1642.59,163.58 1660.44,163.92 1665.57,157.82 1669.01,153.82 1668.99,148.01 1669.00,143.00 1669.00,143.00 1669.00,32.00 1669.00,32.00 1668.98,27.94 1668.94,23.57 1666.30,20.21 1661.67,14.32 1646.13,14.37 1640.00,17.45 1634.69,20.12 1630.24,27.29 1626.58,32.00 1626.58,32.00 1603.65,62.00 1603.65,62.00 1603.65,62.00 1593.87,74.98 1593.87,74.98 1592.49,76.69 1590.78,79.26 1588.25,78.09 1585.97,77.03 1578.59,66.62 1576.63,64.00 1576.63,64.00 1553.87,34.00 1553.87,34.00 1545.68,23.07 1543.45,16.45 1529.00,15.51 1514.29,14.55 1510.17,19.96 1510.00,34.00 1510.00,34.00 1510.00,142.00 1510.00,142.00 1510.01,146.82 1510.09,153.99 1513.43,157.69 1518.64,163.69 1537.00,163.72 1542.03,157.69 1544.62,154.47 1544.94,150.87 1545.00,147.00 1545.00,147.00 1545.00,117.00 1545.00,117.00 1545.00,117.00 1545.00,78.00 1545.00,78.00 Z M 1425.00,74.00 C 1425.00,74.00 1438.00,101.00 1438.00,101.00 1432.41,102.59 1416.59,102.59 1411.00,101.00 1411.00,101.00 1423.00,74.00 1423.00,74.00 1423.00,74.00 1425.00,74.00 1425.00,74.00 Z" /> -->
 <!-- <path fill="#1d1d1d" stroke="#1d1d1d" d="M 12870 144.3 C 12630.4 183.5 12402.2 299 12283.1 520 12240.1 599.7 12201.1 719.2 12200 810 12200 810 12200 940 12200 940 12201.3 1215.2 12380.4 1444.4 12620 1562.4 12713.2 1608.3 12815.6 1638.7 12920 1640 13080.1 1641.8 13200.5 1620.2 13340 1536 13392.9 1504.1 13459.3 1461.3 13453 1390 13446.5 1315.4 13353.3 1175 13270 1182.5 13208.2 1188.1 13155.4 1250.1 13070 1275.6 12878.8 1332.8 12652 1239 12574.7 1050 12453.9 754.2 12695.5 449.7 13010 488.9 13173.3 509.3 13229.4 649.7 13340 573.5 13399.5 532.5 13480.1 426.697 13449.9 350 13431.4 303.2 13391 277 13350 252 13203.6 162.9 13040.9 123.2 12870 144.3 Z M 14220 154.7 C 14185.2 162.9 14159.2 169.8 14131 193.9 14086.7 231.8 14016.6 390.5 13989.8 450 13989.8 450 13852.6 730 13852.6 730 13852.6 730 13627.5 1200 13627.5 1200 13627.5 1200 13561.2 1340 13561.2 1340 13528.8 1409.7 13477 1487.8 13543.4 1556.7 13592.6 1607.7 13722.2 1666.8 13789.6 1622.6 13836.4 1591.9 13892 1464.3 13915.8 1410 13928.6 1380.6 13943.3 1337.2 13972.1 1320.2 13991.4 1308.9 14018.3 1310.2 14040 1310 14040 1310 14440 1310 14440 1310 14463.7 1310 14497.2 1308 14517.9 1320.2 14546.7 1337.3 14559.6 1380.7 14573.1 1410 14598.9 1466.2 14657.8 1602.8 14710.2 1629.8 14734.4 1642.3 14773.5 1641.4 14800 1636.7 14883.6 1622.1 14992.3 1556.9 14976.7 1460 14967 1400.1 14855.2 1187.5 14822.6 1120 14822.6 1120 14607.4 670 14607.4 670 14607.4 670 14495.8 440 14495.8 440 14495.8 440 14432.5 310 14432.5 310 14383.3 211.7 14346 139.8 14220 154.7 Z M 15450 780 C 15511.8 828.3 15648.8 1033.5 15706.3 1110 15752.9 1172 15795.6 1232.9 15880 1239 15975.9 1246 16023.8 1190.1 16077.7 1120 16144.3 1033.2 16263.7 837.3 16340 780 16340 780 16340 1420 16340 1420 16340.1 1466.7 16340.3 1541.7 16373.1 1578.2 16425.9 1635.8 16604.4 1639.2 16655.7 1578.2 16690.1 1538.2 16689.9 1480.1 16690 1430 16690 1430 16690 320 16690 320 16689.8 279.4 16689.4 235.7 16663 202.1 16616.7 143.2 16461.3 143.7 16400 174.5 16346.9 201.2 16302.4 272.9 16265.8 320 16265.8 320 16036.5 620 16036.5 620 16036.5 620 15938.7 749.8 15938.7 749.8 15924.9 766.9 15907.8 792.6 15882.5 780.9 15859.7 770.3 15785.9 666.2 15766.3 640 15766.3 640 15538.7 340 15538.7 340 15456.8 230.7 15434.5 164.5 15290 155.1 15142.9 145.5 15101.7 199.6 15100 340 15100 340 15100 1420 15100 1420 15100.1 1468.2 15100.9 1539.9 15134.3 1576.9 15186.4 1636.9 15370 1637.2 15420.3 1576.9 15446.2 1544.7 15449.4 1508.7 15450 1470 15450 1470 15450 1170 15450 1170 15450 1170 15450 780 15450 780 Z M 14250 740 C 14250 740 14380 1010 14380 1010 14324.1 1025.9 14165.9 1025.9 14110 1010 14110 1010 14230 740 14230 740 14230 740 14250 740 14250 740 Z"/> -->

 
 <path fill="#1d1d1d" stroke="#1d1d1d" d="M 12870,144.3 C 12630.4,183.5 12402.2,299 12283.1,520 12240.1,599.7 12201.1,719.2 12200,810 12200,810 12200,940 12200,940 12201.3,1215.2 12380.4,1444.4 12620,1562.4 12713.2,1608.3 12815.6,1638.7 12920,1640 13080.1,1641.8 13200.5,1620.2 13340,1536 13392.9,1504.1 13459.3,1461.3 13453,1390 13446.5,1315.4 13353.3,1175 13270,1182.5 13208.2,1188.1 13155.4,1250.1 13070,1275.6 12878.8,1332.8 12652,1239 12574.7,1050 12453.9,754.2 12695.5,449.7 13010,488.9 13173.3,509.3 13229.4,649.7 13340,573.5 13399.5,532.5 13480.1,426.697 13449.9,350 13431.4,303.2 13391,277 13350,252 13203.6,162.9 13040.9,123.2 12870,144.3 Z M 14220,154.7 C 14185.2,162.9 14159.2,169.8 14131,193.9 14086.7,231.8 14016.6,390.5 13989.8,450 13989.8,450 13852.6,730 13852.6,730 13852.6,730 13627.5,1200 13627.5,1200 13627.5,1200 13561.2,1340 13561.2,1340 13528.8,1409.7 13477,1487.8 13543.4,1556.7 13592.6,1607.7 13722.2,1666.8 13789.6,1622.6 13836.4,1591.9 13892,1464.3 13915.8,1410 13928.6,1380.6 13943.3,1337.2 13972.1,1320.2 13991.4,1308.9 14018.3,1310.2 14040,1310 14040,1310 14440,1310 14440,1310 14463.7,1310 14497.2,1308 14517.9,1320.2 14546.7,1337.3 14559.6,1380.7 14573.1,1410 14598.9,1466.2 14657.8,1602.8 14710.2,1629.8 14734.4,1642.3 14773.5,1641.4 14800,1636.7 14883.6,1622.1 14992.3,1556.9 14976.7,1460 14967,1400.1 14855.2,1187.5 14822.6,1120 14822.6,1120 14607.4,670 14607.4,670 14607.4,670 14495.8,440 14495.8,440 14495.8,440 14432.5,310 14432.5,310 14383.3,211.7 14346,139.8 14220,154.7 Z M 15450,780 C 15511.8,828.3 15648.8,1033.5 15706.3,1110 15752.9,1172 15795.6,1232.9 15880,1239 15975.9,1246 16023.8,1190.1 16077.7,1120 16144.3,1033.2 16263.7,837.3 16340,780 16340,780 16340,1420 16340,1420 16340.1,1466.7 16340.3,1541.7 16373.1,1578.2 16425.9,1635.8 16604.4,1639.2 16655.7,1578.2 16690.1,1538.2 16689.9,1480.1 16690,1430 16690,1430 16690,320 16690,320 16689.8,279.4 16689.4,235.7 16663,202.1 16616.7,143.2 16461.3,143.7 16400,174.5 16346.9,201.2 16302.4,272.9 16265.8,320 16265.8,320 16036.5,620 16036.5,620 16036.5,620 15938.7,749.8 15938.7,749.8 15924.9,766.9 15907.8,792.6 15882.5,780.9 15859.7,770.3 15785.9,666.2 15766.3,640 15766.3,640 15538.7,340 15538.7,340 15456.8,230.7 15434.5,164.5 15290,155.1 15142.9,145.5 15101.7,199.6 15100,340 15100,340 15100,1420 15100,1420 15100.1,1468.2 15100.9,1539.9 15134.3,1576.9 15186.4,1636.9 15370,1637.2 15420.3,1576.9 15446.2,1544.7 15449.4,1508.7 15450,1470 15450,1470 15450,1170 15450,1170 15450,1170 15450,780 15450,780 Z M 14250,740 C 14250,740 14380,1010 14380,1010 14324.1,1025.9 14165.9,1025.9 14110,1010 14110,1010 14230,740 14230,740 14230,740 14250,740 14250,740 Z"/>
 
</g>
</svg>