<!DOCTYPE svg PUBLIC "-//W3C//DTD SVG 20010904//EN" "http://www.w3.org/TR/2001/REC-SVG-20010904/DTD/svg10.dtd">
<svg version="1.0" xmlns="http://www.w3.org/2000/svg" width="1200px" height="199px" viewBox="0 0 12000 1990" preserveAspectRatio="xMidYMid meet">
<g id="layer101" fill="#005291" stroke="none">
 <path d="M9455 1978 c-16 -6 -48 -17 -71 -25 -22 -8 -53 -25 -69 -37 l-29 -23 39 -102 c21 -56 42 -104 47 -107 4 -3 23 7 41 22 50 43 106 64 170 64 97 0 158 -41 173 -119 l6 -31 -42 15 c-60 21 -165 19 -215 -4 -92 -44 -140 -117 -147 -228 -1 -18 -5 -33 -8 -33 -3 0 -17 27 -32 59 -86 184 -323 273 -543 204 -136 -43 -205 -147 -205 -308 0 -193 110 -380 255 -434 125 -47 274 -46 381 3 64 29 99 66 132 136 21 45 26 70 26 141 l1 87 25 -72 c56 -158 152 -247 315 -292 72 -19 510 -33 526 -17 7 7 1 48 -19 124 -40 156 -46 182 -134 589 -51 239 -115 321 -297 380 -64 21 -275 26 -326 8z m-480 -544 c59 -60 110 -309 73 -356 -49 -60 -119 12 -153 154 -17 73 -19 171 -5 199 13 24 62 26 85 3z m812 -2 c18 -13 29 -50 58 -178 19 -88 35 -163 35 -167 0 -12 -49 -8 -83 7 -71 30 -119 121 -121 229 -1 66 0 70 32 98 37 33 49 35 79 11z"/>
 <path d="M7659 1650 c-205 -35 -303 -201 -255 -430 50 -235 203 -363 436 -363 160 0 260 50 315 158 29 56 30 64 29 184 0 107 -4 135 -24 186 -59 153 -171 241 -335 265 -79 11 -101 11 -166 0z m140 -219 c31 -31 50 -74 67 -153 19 -93 22 -181 6 -201 -35 -42 -96 -11 -126 64 -39 96 -57 249 -36 290 14 25 64 25 89 0z"/>
 <path d="M11540 1654 c-120 -13 -233 -50 -245 -82 -3 -8 7 -57 21 -108 29 -101 43 -114 80 -73 45 50 153 81 207 60 61 -24 42 -61 -57 -112 -84 -44 -111 -64 -135 -102 -63 -102 -19 -255 96 -327 104 -66 305 -70 451 -8 49 20 49 18 12 142 -26 92 -33 97 -72 59 -18 -18 -46 -37 -63 -43 -41 -16 -115 -14 -133 4 -21 21 -4 40 67 76 125 63 171 115 185 210 10 72 -16 142 -77 205 -44 45 -63 56 -122 73 -74 22 -157 32 -215 26z"/>
 <path d="M4630 1636 c-68 -19 -114 -44 -155 -84 -65 -65 -95 -149 -95 -267 0 -177 84 -317 231 -385 60 -28 87 -34 165 -38 111 -6 172 7 236 50 68 47 109 120 116 208 2 39 8 70 12 70 4 0 12 -19 19 -42 26 -89 114 -194 198 -236 80 -41 150 -55 257 -50 76 4 114 11 155 28 61 27 60 22 21 169 -18 65 -26 81 -41 81 -10 0 -19 -4 -19 -9 0 -20 -68 -51 -112 -51 -86 0 -154 76 -165 184 -7 65 22 136 63 154 41 19 107 14 156 -12 68 -36 75 -25 50 75 -11 46 -23 96 -26 111 -8 38 -80 58 -202 58 -128 0 -190 -23 -265 -99 -59 -60 -81 -108 -94 -204 -6 -42 -8 -46 -21 -32 -13 12 -51 15 -223 15 -114 0 -210 3 -214 6 -3 4 0 19 8 34 31 59 162 78 278 39 34 -11 70 -28 80 -37 13 -12 20 -13 29 -4 9 9 6 35 -11 109 -13 54 -28 106 -32 115 -5 10 -39 26 -75 38 -77 23 -249 27 -324 6z m230 -501 c18 -22 -5 -70 -40 -85 -22 -9 -34 -9 -56 2 -26 12 -74 70 -74 89 0 5 35 9 79 9 58 0 82 -4 91 -15z"/>
 <path d="M10800 1628 c-139 -49 -208 -146 -218 -306 -10 -182 53 -316 188 -402 64 -40 141 -60 235 -60 118 0 177 20 239 83 71 71 90 132 84 268 -3 74 -8 103 -18 109 -8 6 -108 10 -222 10 -133 0 -209 4 -213 10 -11 18 24 61 63 77 61 25 184 15 260 -23 86 -42 91 -36 63 78 -12 51 -26 103 -31 114 -14 37 -90 56 -235 61 -116 3 -137 1 -195 -19z m260 -511 c0 -49 -21 -71 -65 -71 -30 0 -44 7 -71 37 -54 59 -48 67 51 67 l85 0 0 -33z"/>
 <path d="M1036 1632 c-3 -5 6 -49 18 -98 66 -251 155 -651 148 -659 -3 -3 -54 -5 -114 -5 -101 0 -108 -1 -108 -20 0 -26 48 -190 59 -204 7 -8 229 -11 748 -10 698 1 738 2 741 18 4 18 -6 67 -34 163 l-14 52 -107 3 -107 3 -33 145 c-18 80 -54 246 -80 370 -25 124 -50 231 -56 238 -14 18 -316 17 -323 -1 -2 -7 13 -84 35 -172 54 -216 131 -552 131 -570 0 -13 -31 -15 -204 -15 l-204 0 -15 68 c-9 37 -30 130 -47 207 -17 77 -35 158 -40 180 -6 22 -21 98 -35 168 -13 71 -27 132 -30 138 -7 11 -322 12 -329 1z"/>
 <path d="M2311 1632 c-9 -6 -11 -17 -7 -28 16 -41 136 -487 201 -749 25 -99 50 -190 55 -202 9 -23 12 -23 209 -23 114 0 202 4 206 9 3 6 12 128 20 272 9 145 17 264 18 265 1 2 36 -70 77 -159 41 -89 98 -213 127 -274 l52 -113 200 0 c118 0 202 4 206 10 3 5 -12 125 -35 267 -22 142 -47 303 -55 358 -35 240 -55 358 -61 364 -3 3 -72 6 -152 6 l-147 0 1 -25 c0 -14 24 -148 53 -298 29 -151 51 -278 49 -284 -4 -12 -7 -8 -169 336 -60 126 -115 239 -123 251 -13 20 -23 22 -134 24 -66 1 -123 -2 -126 -7 -3 -5 -10 -110 -16 -233 -15 -313 -21 -389 -29 -389 -3 0 -40 138 -81 306 -41 168 -78 307 -82 310 -16 10 -243 15 -257 6z"/>
 <path d="M3896 1632 c-2 -4 19 -107 48 -227 29 -121 67 -283 85 -360 18 -77 35 -148 37 -157 5 -16 -5 -18 -110 -18 -134 0 -126 9 -95 -113 34 -136 -11 -123 413 -121 239 1 371 5 378 12 7 7 4 31 -10 79 -11 37 -24 84 -29 103 l-9 35 -106 3 -106 3 -27 107 c-14 59 -51 226 -81 372 -30 146 -56 271 -59 278 -3 9 -45 12 -164 12 -88 0 -162 -4 -165 -8z"/>
 <path d="M5716 1631 c-3 -4 15 -98 40 -207 25 -109 49 -219 54 -244 5 -25 22 -103 38 -175 30 -133 56 -273 69 -380 l8 -60 60 -12 c129 -26 260 -42 269 -33 8 8 -36 226 -70 344 -8 27 -12 51 -10 53 2 2 19 -5 37 -16 19 -11 61 -27 94 -36 74 -19 150 -7 196 33 39 32 69 101 69 155 0 46 -101 554 -113 575 -6 9 -49 12 -158 12 -136 0 -149 -2 -149 -18 0 -10 18 -101 40 -202 50 -227 59 -310 37 -329 -18 -14 -70 -7 -85 12 -9 12 -46 183 -87 398 -12 64 -25 121 -29 127 -9 14 -302 17 -310 3z"/>
 <path d="M6534 1625 c-3 -8 -3 -18 0 -23 3 -5 12 -40 20 -78 8 -38 24 -112 36 -164 35 -158 60 -291 70 -369 11 -83 21 -101 59 -101 14 0 80 -9 145 -20 129 -22 142 -19 131 28 -7 27 -7 27 46 -2 175 -96 349 -15 349 162 0 27 -15 118 -34 203 -18 85 -42 199 -51 254 -10 55 -23 106 -28 113 -7 9 -51 12 -158 12 -137 0 -149 -1 -149 -18 0 -10 20 -112 45 -226 25 -115 45 -226 45 -247 0 -49 -25 -66 -74 -49 l-33 10 -36 178 c-20 97 -42 211 -48 252 -7 41 -16 81 -22 88 -15 19 -306 17 -313 -3z"/>
 <path d="M8144 1625 c-3 -8 21 -126 55 -262 76 -313 125 -537 147 -678 9 -60 20 -114 24 -118 9 -11 309 -59 321 -51 14 8 12 24 -37 227 -57 235 -61 250 -118 517 -63 296 -77 353 -89 368 -15 19 -296 17 -303 -3z"/>
 <path d="M10137 1627 c-2 -6 4 -44 14 -82 38 -141 81 -334 109 -483 15 -84 30 -155 32 -157 3 -4 301 -55 318 -55 15 0 19 29 9 62 -29 101 -96 406 -130 598 -11 63 -25 118 -32 122 -7 4 -80 8 -163 8 -113 0 -153 -3 -157 -13z"/>
 <path d="M180 947 c-74 -58 -114 -106 -150 -178 -26 -51 -30 -70 -29 -127 2 -57 7 -75 34 -117 102 -160 331 -278 731 -379 241 -61 486 -97 934 -135 184 -16 891 -8 1120 12 425 38 706 76 1100 148 171 32 550 116 558 124 12 12 -9 12 -102 -1 -242 -34 -704 -77 -1051 -98 -775 -48 -1400 -39 -1910 25 -717 90 -1160 258 -1251 474 -29 71 -15 143 47 238 20 31 34 57 31 57 -4 0 -32 -19 -62 -43z"/>
 <path d="M10324 816 c-6 -17 35 -225 48 -242 4 -6 34 -14 66 -18 31 -3 96 -11 145 -18 58 -8 90 -9 97 -2 11 11 -33 231 -49 247 -7 7 -245 47 -283 47 -10 0 -21 -6 -24 -14z"/>
 </g>

</svg>