<svg version="1.0" xmlns="http://www.w3.org/2000/svg" width="4480" height="1639" preserveAspectRatio="xMidYMid meet"><rect id="backgroundrect" width="100%" height="100%" x="0" y="0" fill="none" stroke="none" style="" class=""/>


<g class="currentLayer" style=""><title>Layer 1</title><g id="layer101" fill="#005291" stroke="none" class="">
 <path d="M1035.13671875,1629.51171875 c-3,-5 6,-49 18,-98 c66,-251 155,-651 148,-659 c-3,-3 -54,-5 -114,-5 c-101,0 -108,-1 -108,-20 c0,-26 48,-190 59,-204 c7,-8 229,-11 748,-10 c698,1 738,2 741,18 c4,18 -6,67 -34,163 l-14,52 l-107,3 l-107,3 l-33,145 c-18,80 -54,246 -80,370 c-25,124 -50,231 -56,238 c-14,18 -316,17 -323,-1 c-2,-7 13,-84 35,-172 c54,-216 131,-552 131,-570 c0,-13 -31,-15 -204,-15 l-204,0 l-15,68 c-9,37 -30,130 -47,207 c-17,77 -35,158 -40,180 c-6,22 -21,98 -35,168 c-13,71 -27,132 -30,138 c-7,11 -322,12 -329,1 z" id="svg_1"/>
 <path d="M2310.13671875,1629.51171875 c-9,-6 -11,-17 -7,-28 c16,-41 136,-487 201,-749 c25,-99 50,-190 55,-202 c9,-23 12,-23 209,-23 c114,0 202,4 206,9 c3,6 12,128 20,272 c9,145 17,264 18,265 c1,2 36,-70 77,-159 c41,-89 98,-213 127,-274 l52,-113 l200,0 c118,0 202,4 206,10 c3,5 -12,125 -35,267 c-22,142 -47,303 -55,358 c-35,240 -55,358 -61,364 c-3,3 -72,6 -152,6 l-147,0 l1,-25 c0,-14 24,-148 53,-298 c29,-151 51,-278 49,-284 c-4,-12 -7,-8 -169,336 c-60,126 -115,239 -123,251 c-13,20 -23,22 -134,24 c-66,1 -123,-2 -126,-7 c-3,-5 -10,-110 -16,-233 c-15,-313 -21,-389 -29,-389 c-3,0 -40,138 -81,306 c-41,168 -78,307 -82,310 c-16,10 -243,15 -257,6 z" id="svg_2"/> 
 <path d="M179.13671875,944.51171875 c-74,-58 -114,-106 -150,-178 c-26,-51 -30,-70 -29,-127 c2,-57 7,-75 34,-117 c102,-160 331,-278 731,-379 c241,-61 486,-97 934,-135 c184,-16 891,-8 1120,12 c425,38 706,76 1100,148 c171,32 550,116 558,124 c12,12 -9,12 -102,-1 c-242,-34 -704,-77 -1051,-98 c-775,-48 -1400,-39 -1910,25 c-717,90 -1160,258 -1251,474 c-29,71 -15,143 47,238 c20,31 34,57 31,57 c-4,0 -32,-19 -62,-43 z" id="svg_3"/>
 </g></g></svg>